<?xml version="1.0" standalone="no"?>
<!DOCTYPE svg PUBLIC "-//W3C//DTD SVG 20010904//EN"
 "http://www.w3.org/TR/2001/REC-SVG-20010904/DTD/svg10.dtd">
<svg version="1.0" xmlns="http://www.w3.org/2000/svg"
 width="725.000000pt" height="725.000000pt" viewBox="0 0 725.000000 725.000000"
 preserveAspectRatio="xMidYMid meet">
<metadata>
Created by potrace 1.11, written by Peter Selinger 2001-2013
</metadata>
<g transform="translate(0.000000,725.000000) scale(0.100000,-0.100000)"
fill="#000000" stroke="none">
<path d="M2410 7237 c-158 -20 -308 -94 -420 -207 -120 -121 -179 -240 -188
-381 -4 -64 0 -88 23 -154 86 -250 63 -378 -76 -419 -29 -9 -61 -16 -71 -16
-29 0 -68 44 -61 69 5 18 12 21 52 20 53 -2 81 10 110 47 30 38 26 67 -15 121
-46 60 -82 136 -89 188 -3 22 -7 54 -9 70 -2 17 -5 37 -5 45 -1 18 -50 -35
-127 -136 -190 -250 -270 -535 -229 -819 21 -148 57 -255 127 -374 85 -146
107 -296 55 -383 -33 -57 -91 -88 -164 -88 -62 0 -89 25 -84 78 0 7 15 12 33
12 50 0 114 36 129 73 28 65 4 173 -56 250 -13 18 -49 51 -79 73 -39 28 -71
65 -112 128 l-58 89 -22 -49 c-41 -93 -121 -339 -148 -453 -89 -372 -61 -674
81 -890 20 -31 83 -103 140 -161 129 -131 155 -179 161 -297 3 -64 0 -94 -13
-129 -22 -57 -69 -113 -112 -130 -47 -20 -126 -18 -153 4 -19 16 -20 21 -9 45
10 22 19 27 48 27 75 0 141 64 141 135 0 43 -25 120 -57 174 -38 67 -84 108
-134 121 -81 20 -94 30 -159 116 l-65 86 -6 -43 c-7 -52 -3 -643 4 -679 3 -14
8 -52 11 -85 40 -378 174 -719 358 -904 50 -51 179 -137 258 -171 69 -30 100
-58 135 -123 45 -82 33 -178 -29 -230 -39 -33 -98 -56 -118 -46 -28 15 -22 37
32 128 28 46 50 88 50 93 0 26 -35 70 -75 94 -25 14 -116 50 -203 79 -86 28
-172 60 -190 69 -19 10 -36 15 -38 13 -17 -16 94 -343 166 -492 151 -312 354
-524 606 -633 103 -44 154 -59 321 -92 174 -34 268 -67 329 -113 68 -51 80
-97 44 -167 -38 -74 -86 -104 -129 -80 -29 15 -32 38 -11 73 44 71 15 127 -69
135 -44 4 -57 1 -84 -19 -27 -20 -44 -23 -132 -25 -152 -3 -155 -3 -155 -12 0
-13 185 -193 265 -258 247 -202 609 -380 971 -478 131 -36 389 -90 479 -101
28 -4 57 -8 65 -10 8 -2 47 -7 85 -11 39 -3 77 -8 86 -9 144 -27 1073 -27
1264 0 17 2 66 7 110 10 82 7 148 15 153 20 1 1 -30 6 -70 9 -257 25 -580 112
-768 206 -67 34 -85 39 -170 43 -146 8 -458 73 -742 157 -607 177 -1095 453
-1448 817 -185 190 -319 380 -435 618 -141 289 -282 739 -312 1000 -10 91 -10
458 0 555 29 263 133 662 232 885 7 17 27 64 44 106 47 112 177 375 263 529
165 295 183 349 182 530 -1 69 -4 186 -7 260 -7 155 2 201 60 320 58 118 165
211 282 245 21 6 23 5 17 -11 -18 -45 -32 -141 -25 -172 16 -73 84 -136 231
-215 306 -165 381 -221 438 -328 76 -143 43 -311 -96 -483 -53 -65 -54 -67
-18 -38 161 129 598 218 1103 226 83 2 154 5 157 9 10 10 -104 217 -174 317
-118 168 -361 397 -544 513 l-56 36 -1 -77 c-1 -42 -12 -131 -25 -197 -13 -65
-22 -133 -19 -150 7 -44 52 -85 101 -92 37 -5 45 -2 71 26 30 32 66 41 73 19
9 -25 -15 -89 -40 -108 -52 -42 -158 -10 -241 71 -48 48 -48 48 -55 204 -13
307 -62 406 -309 628 l-87 79 7 -61 c5 -56 3 -68 -30 -139 -47 -101 -52 -157
-17 -192 27 -27 80 -27 87 -1 7 28 35 36 50 15 33 -45 3 -134 -44 -134 -49 1
-167 82 -195 134 -6 12 -12 75 -13 141 -4 209 -38 294 -172 430 -101 102 -135
167 -141 268 -4 58 0 75 23 122 14 30 31 55 36 55 5 0 9 4 9 9 0 11 -61 10
-150 -2z"/>
<path d="M2325 6139 c-35 -43 -70 -112 -91 -184 -13 -48 -16 -81 -10 -165 3
-58 9 -121 12 -140 15 -86 7 -352 -12 -406 -4 -10 -44 -75 -90 -144 -141 -215
-267 -473 -437 -902 -106 -266 -144 -390 -172 -560 -3 -18 -7 -44 -10 -58 -18
-106 -26 -379 -14 -511 5 -46 11 -113 14 -149 22 -227 125 -608 234 -865 95
-223 171 -354 285 -495 114 -141 245 -277 356 -370 36 -30 67 -58 70 -61 16
-18 182 -137 266 -192 422 -272 949 -465 1458 -532 107 -14 223 -20 156 -8
-51 9 -208 92 -290 153 -47 35 -130 109 -186 165 l-101 102 -99 6 c-163 10
-404 69 -596 146 -127 51 -248 115 -374 200 -404 271 -704 682 -868 1191 -54
166 -68 230 -91 425 -14 114 -1 483 20 595 3 14 8 43 11 65 25 170 101 461
161 610 126 317 394 620 768 869 61 41 124 80 140 89 30 15 29 15 -44 16 -60
0 -84 5 -135 30 -67 32 -159 109 -181 152 -74 142 65 329 246 329 65 0 94 -24
85 -72 -3 -19 -14 -43 -24 -51 -17 -16 -21 -15 -56 2 -47 25 -84 14 -122 -36
-22 -29 -27 -46 -27 -97 -1 -112 54 -166 169 -166 75 0 155 23 216 62 37 23
55 44 79 94 29 58 31 70 27 136 -11 154 -104 271 -297 373 -63 33 -140 78
-172 100 -110 77 -209 186 -225 249 -9 39 -19 40 -49 5z"/>
<path d="M5145 5051 c-24 -5 -31 -12 -36 -41 -9 -55 -29 -79 -94 -110 -125
-61 -445 -130 -765 -165 -30 -3 -66 -8 -80 -10 -28 -5 -86 -11 -175 -20 -33
-3 -76 -8 -95 -10 -32 -4 -173 -18 -315 -30 -33 -3 -80 -8 -105 -10 -25 -2
-79 -7 -120 -10 -41 -3 -95 -8 -120 -10 -25 -2 -83 -7 -130 -10 -47 -3 -105
-8 -130 -10 -45 -4 -200 -15 -272 -19 -21 -1 -40 -5 -44 -8 -17 -18 823 -12
1101 7 202 14 318 25 435 40 19 3 55 7 80 10 215 28 471 85 630 140 181 63
360 166 376 217 13 43 -55 67 -141 49z"/>
<path d="M5580 4696 c0 -2 7 -23 15 -46 21 -58 19 -78 -11 -139 -83 -165 -442
-305 -1039 -405 -121 -21 -445 -61 -565 -71 -41 -3 -86 -8 -100 -10 -14 -2
-70 -7 -125 -11 -55 -3 -107 -7 -115 -9 -8 -2 -73 -6 -145 -9 -71 -4 -146 -9
-165 -11 -19 -2 -102 -7 -185 -10 -82 -4 -179 -8 -215 -10 -36 -2 -189 -7
-340 -10 -151 -4 -277 -10 -280 -12 -5 -5 762 5 945 12 162 6 382 16 445 20
36 2 108 7 160 10 100 6 127 8 330 25 688 58 1216 169 1446 305 112 66 173
157 159 236 -8 43 -21 66 -49 84 -22 14 -166 67 -166 61z"/>
<path d="M5990 4167 c0 -2 8 -19 17 -37 23 -47 21 -126 -5 -176 -49 -95 -207
-201 -415 -278 -298 -111 -824 -213 -1392 -271 -33 -4 -76 -8 -95 -10 -19 -2
-69 -7 -110 -10 -41 -3 -88 -8 -105 -10 -16 -2 -70 -6 -120 -10 -49 -3 -112
-8 -140 -10 -27 -2 -90 -7 -140 -10 -49 -3 -121 -7 -160 -10 -38 -3 -131 -7
-205 -10 -74 -3 -166 -8 -205 -10 -62 -4 -323 -12 -577 -19 -49 -2 -91 -6 -95
-10 -9 -9 843 6 1102 19 50 2 153 7 230 10 77 4 165 8 195 10 30 2 102 7 160
10 58 3 125 8 150 10 25 2 86 7 135 10 50 3 106 8 125 10 19 3 64 7 100 10 59
4 102 9 200 20 19 3 94 11 165 20 138 16 185 22 225 30 14 2 43 7 65 10 37 5
167 27 240 41 497 91 816 228 895 385 36 70 20 179 -32 213 -36 24 -208 84
-208 73z"/>
<path d="M6200 3505 c0 -4 7 -20 16 -37 21 -40 21 -113 1 -161 -9 -22 -43 -64
-75 -95 -204 -200 -812 -365 -1677 -458 -27 -2 -66 -7 -85 -9 -19 -2 -64 -7
-100 -10 -36 -3 -81 -8 -100 -10 -19 -2 -73 -7 -120 -10 -47 -4 -101 -8 -120
-10 -19 -2 -82 -6 -140 -10 -58 -3 -125 -8 -150 -10 -25 -2 -103 -7 -175 -10
-71 -4 -155 -8 -185 -10 -50 -3 -267 -13 -475 -20 -44 -2 -147 -3 -228 -4 -82
-1 -146 -4 -143 -9 2 -4 81 -7 176 -6 210 2 817 15 885 19 28 2 131 6 230 10
99 3 191 8 205 10 14 2 88 6 165 10 77 4 147 8 155 10 8 1 65 6 125 10 61 4
124 8 140 10 17 2 57 6 90 9 632 60 1085 138 1391 241 359 119 499 255 441
425 -15 44 -60 74 -159 105 -86 27 -88 28 -88 20z"/>
<path d="M2155 3290 l-70 -6 73 -2 c42 -1 72 2 72 8 0 6 -1 9 -2 8 -2 -1 -34
-4 -73 -8z"/>
<path d="M6226 2748 c10 -18 17 -54 17 -79 0 -217 -433 -406 -1198 -523 -88
-14 -182 -27 -210 -31 -27 -3 -66 -7 -85 -10 -163 -20 -210 -26 -315 -35 -66
-6 -136 -13 -155 -15 -19 -2 -71 -7 -115 -10 -44 -3 -102 -8 -130 -10 -27 -2
-97 -7 -155 -10 -58 -3 -127 -8 -155 -10 -27 -2 -115 -7 -195 -10 -80 -3 -172
-8 -205 -10 -33 -2 -168 -7 -300 -11 -132 -3 -275 -7 -317 -8 -43 -1 -81 -6
-85 -10 -12 -12 1027 10 1347 29 41 2 122 7 180 10 58 3 130 7 160 10 30 2 98
7 150 10 52 3 111 8 130 10 19 2 69 7 110 10 69 6 376 38 480 51 129 16 384
59 530 90 495 103 750 242 750 409 0 48 -23 100 -52 119 -27 17 -163 66 -185
66 -11 0 -10 -7 3 -32z"/>
<path d="M2275 2629 l-70 -5 83 -2 c45 -1 82 2 82 6 0 5 -6 8 -12 8 -7 -1 -44
-4 -83 -7z"/>
<path d="M2386 2631 c8 -9 44 -11 44 -3 0 4 -11 8 -25 8 -13 0 -22 -2 -19 -5z"/>
<path d="M5970 2062 c1 -4 7 -18 15 -32 8 -14 14 -46 15 -71 1 -175 -341 -315
-980 -398 -80 -11 -179 -22 -220 -26 -41 -3 -86 -8 -100 -10 -14 -2 -68 -7
-120 -10 -52 -3 -111 -8 -130 -10 -19 -2 -96 -7 -170 -11 -74 -3 -157 -7 -185
-9 -131 -7 -609 -18 -862 -19 -155 -1 -285 -4 -287 -7 -22 -22 1519 -17 1717
6 18 2 77 6 132 10 55 4 114 8 130 10 17 2 64 6 105 10 41 3 122 13 180 21 58
8 123 17 145 20 435 60 753 186 812 322 24 57 1 141 -46 162 -40 19 -151 50
-151 42z"/>
<path d="M2498 1963 c7 -3 16 -2 19 1 4 3 -2 6 -13 5 -11 0 -14 -3 -6 -6z"/>
<path d="M2548 1963 c12 -2 32 -2 45 0 12 2 2 4 -23 4 -25 0 -35 -2 -22 -4z"/>
<path d="M2907 1459 c7 -7 15 -10 18 -7 3 3 -2 9 -12 12 -14 6 -15 5 -6 -5z"/>
<path d="M5455 1343 c18 -34 6 -55 -51 -95 -65 -46 -311 -105 -509 -123 -38
-3 -81 -8 -95 -10 -14 -3 -61 -7 -105 -10 -44 -3 -102 -7 -130 -10 -27 -2
-117 -7 -200 -10 -82 -3 -197 -8 -255 -10 -58 -3 -209 -5 -337 -6 -128 -1
-230 -6 -228 -10 6 -8 920 -4 1045 5 41 3 118 8 170 11 52 3 111 8 130 10 19
2 62 7 95 10 299 31 502 83 573 148 24 23 29 64 10 89 -13 16 -76 38 -110 38
-15 0 -15 -3 -3 -27z"/>
<path d="M3420 1064 c34 -7 110 -9 110 -2 0 5 -28 7 -62 7 -35 -1 -56 -3 -48
-5z"/>
</g>
</svg>
